<mxfile host="Electron" agent="Mozilla/5.0 (Macintosh; Intel Mac OS X 10_15_7) AppleWebKit/537.36 (KHTML, like Gecko) draw.io/24.7.17 Chrome/128.0.6613.36 Electron/32.0.1 Safari/537.36" version="24.7.17">
  <diagram id="n7cRyCmh6ItZVgxvmuYI" name="Page-1">
    <mxGraphModel dx="1114" dy="824" grid="1" gridSize="8" guides="1" tooltips="1" connect="1" arrows="1" fold="1" page="1" pageScale="1" pageWidth="1169" pageHeight="827" background="#ffffff" math="0" shadow="0">
      <root>
        <MiscDiagram modelType="MiscDiagram" lastModifiedUserId="dbush@ibm.com" description="" lastModified="2022-01-25T23:59:19Z" _id="miscdiagram_B1mi-XiVt" label="Business Automation Workflow on OCP" id="0">
          <mxCell />
        </MiscDiagram>
        <mxCell id="1" parent="0" />
        <mxCell id="2" value="OpenShift Cluster" style="swimlane;fillColor=#fff2cc;strokeColor=#d6b656;" parent="1" vertex="1">
          <mxGeometry x="32" y="32" width="920" height="640" as="geometry" />
        </mxCell>
        <mxCell id="12" value="Operators" style="rounded=0;whiteSpace=wrap;html=1;fillColor=#f5f5f5;fontColor=#333333;strokeColor=#666666;verticalAlign=top;" parent="2" vertex="1">
          <mxGeometry x="8" y="37" width="560" height="107" as="geometry" />
        </mxCell>
        <mxCell id="13" value="cp4ba-operator" style="rounded=0;whiteSpace=wrap;html=1;fillColor=#dae8fc;strokeColor=#6c8ebf;" parent="2" vertex="1">
          <mxGeometry x="16" y="64" width="88" height="31" as="geometry" />
        </mxCell>
        <mxCell id="14" value="insights-operator" style="rounded=0;whiteSpace=wrap;html=1;fillColor=#dae8fc;strokeColor=#6c8ebf;" parent="2" vertex="1">
          <mxGeometry x="472" y="104" width="80" height="31" as="geometry" />
        </mxCell>
        <mxCell id="15" value="&lt;font style=&quot;font-size: 15px;&quot;&gt;CPBA Namespace&lt;/font&gt;" style="rounded=0;whiteSpace=wrap;html=1;verticalAlign=top;fillColor=#d5e8d4;strokeColor=#82b366;" parent="2" vertex="1">
          <mxGeometry x="7" y="160" width="905" height="472" as="geometry" />
        </mxCell>
        <UserObject placeholders="1" label="Flink Job Manager" Icon-Name="cube" _id="userobject_36xzUgNaQta" id="miscdiagram_B1mi-XiVt_203dyQNuRJsQD">
          <mxCell style="shape=mxgraph.ibm2mondrian.base;shapeType=lg;shapeLayout=expanded;colorFamily=green;colorBackground=noColor:noColor;html=1;whiteSpace=wrap;metaEdit=1;strokeWidth=1;collapsible=0;recursiveResize=0;expand=0;fontFamily=IBM Plex Sans;fontColor=#000000;fontSize=14;image=;verticalAlign=middle;align=left;spacing=0;spacingLeft=12;spacingRight=16;spacingTop=0;spacingBottom=0;container=1" parent="2" vertex="1">
            <mxGeometry x="283" y="208" width="144" height="64" as="geometry" />
          </mxCell>
        </UserObject>
        <UserObject placeholders="1" label="OpenSearch" Icon-Name="cube" _id="userobject_33307lJiBC1" id="miscdiagram_B1mi-XiVt_173dyQNuRdhab">
          <mxCell style="shape=mxgraph.ibm2mondrian.base;shapeType=lg;shapeLayout=expanded;colorFamily=green;colorBackground=noColor:noColor;html=1;whiteSpace=wrap;metaEdit=1;strokeWidth=1;collapsible=0;recursiveResize=0;expand=0;fontFamily=IBM Plex Sans;fontColor=#000000;fontSize=14;image=;verticalAlign=middle;align=left;spacing=0;spacingLeft=12;spacingRight=16;spacingTop=0;spacingBottom=0;container=1" parent="2" vertex="1">
            <mxGeometry x="499" y="281" width="144" height="64" as="geometry" />
          </mxCell>
        </UserObject>
        <mxCell id="21" value="&lt;span class=&quot;Linkify&quot;&gt;flink-kubernetes-operator&lt;/span&gt;" style="rounded=0;whiteSpace=wrap;html=1;fillColor=#dae8fc;strokeColor=#6c8ebf;" parent="2" vertex="1">
          <mxGeometry x="152" y="64" width="128" height="32" as="geometry" />
        </mxCell>
        <mxCell id="22" value="ibm-common-service-operator" style="rounded=0;whiteSpace=wrap;html=1;fillColor=#dae8fc;strokeColor=#6c8ebf;" parent="2" vertex="1">
          <mxGeometry x="16" y="104" width="128" height="32" as="geometry" />
        </mxCell>
        <mxCell id="23" value="ibm-bai-insights-engine-operator" style="rounded=0;whiteSpace=wrap;html=1;fillColor=#dae8fc;strokeColor=#6c8ebf;" parent="2" vertex="1">
          <mxGeometry x="409" y="63" width="144" height="32" as="geometry" />
        </mxCell>
        <UserObject placeholders="1" label="Flink Task Manager" Icon-Name="cube" _id="userobject_36xzUgNaQta" id="ZTb6Zkya2gtgggZRYpDZ-33">
          <mxCell style="shape=mxgraph.ibm2mondrian.base;shapeType=lg;shapeLayout=expanded;colorFamily=green;colorBackground=noColor:noColor;html=1;whiteSpace=wrap;metaEdit=1;strokeWidth=1;collapsible=0;recursiveResize=0;expand=0;fontFamily=IBM Plex Sans;fontColor=#000000;fontSize=14;image=;verticalAlign=middle;align=left;spacing=0;spacingLeft=12;spacingRight=16;spacingTop=0;spacingBottom=0;container=1" vertex="1" parent="2">
            <mxGeometry x="283" y="301" width="144" height="64" as="geometry" />
          </mxCell>
        </UserObject>
        <mxCell id="9" value="data-opensearch PVC&amp;nbsp;" style="shape=cylinder3;whiteSpace=wrap;html=1;boundedLbl=1;backgroundOutline=1;size=15;" parent="2" vertex="1">
          <mxGeometry x="550" y="434" width="60" height="80" as="geometry" />
        </mxCell>
        <mxCell id="ZTb6Zkya2gtgggZRYpDZ-35" value="" style="edgeStyle=orthogonalEdgeStyle;rounded=1;orthogonalLoop=1;jettySize=auto;html=1;jumpStyle=arc;jumpSize=8;exitX=0.5;exitY=0;exitDx=0;exitDy=0;exitPerimeter=0;entryX=0.5;entryY=1;entryDx=0;entryDy=0;startArrow=classic;startFill=1;" edge="1" parent="2" source="9" target="ZTb6Zkya2gtgggZRYpDZ-39">
          <mxGeometry relative="1" as="geometry">
            <mxPoint x="633" y="657" as="sourcePoint" />
            <mxPoint x="633.4000000000001" y="545.5" as="targetPoint" />
          </mxGeometry>
        </mxCell>
        <UserObject placeholders="1" label="Business Performance Center" Icon-Name="cube" _id="userobject_36xAfdTrJis" id="miscdiagram_B1mi-XiVt_223dyQNuR4viP">
          <mxCell style="shape=mxgraph.ibm2mondrian.base;shapeType=lg;shapeLayout=expanded;colorFamily=green;colorBackground=noColor:noColor;html=1;whiteSpace=wrap;metaEdit=1;strokeWidth=1;collapsible=0;recursiveResize=0;expand=0;fontFamily=IBM Plex Sans;fontColor=#000000;fontSize=14;image=;verticalAlign=middle;align=left;spacing=0;spacingLeft=12;spacingRight=16;spacingTop=0;spacingBottom=0;container=1" parent="2" vertex="1">
            <mxGeometry x="707" y="281" width="144" height="64" as="geometry" />
          </mxCell>
        </UserObject>
        <UserObject placeholders="1" label="OpenSearch" Icon-Name="cube" _id="userobject_33307lJiBC1" id="ZTb6Zkya2gtgggZRYpDZ-39">
          <mxCell style="shape=mxgraph.ibm2mondrian.base;shapeType=lg;shapeLayout=expanded;colorFamily=green;colorBackground=noColor:noColor;html=1;whiteSpace=wrap;metaEdit=1;strokeWidth=1;collapsible=0;recursiveResize=0;expand=0;fontFamily=IBM Plex Sans;fontColor=#000000;fontSize=14;image=;verticalAlign=middle;align=left;spacing=0;spacingLeft=12;spacingRight=16;spacingTop=0;spacingBottom=0;container=1" vertex="1" parent="2">
            <mxGeometry x="507" y="289" width="144" height="64" as="geometry" />
          </mxCell>
        </UserObject>
        <UserObject placeholders="1" label="Flink Task Manager" Icon-Name="cube" _id="userobject_36xzUgNaQta" id="ZTb6Zkya2gtgggZRYpDZ-42">
          <mxCell style="shape=mxgraph.ibm2mondrian.base;shapeType=lg;shapeLayout=expanded;colorFamily=green;colorBackground=noColor:noColor;html=1;whiteSpace=wrap;metaEdit=1;strokeWidth=1;collapsible=0;recursiveResize=0;expand=0;fontFamily=IBM Plex Sans;fontColor=#000000;fontSize=14;image=;verticalAlign=middle;align=left;spacing=0;spacingLeft=12;spacingRight=16;spacingTop=0;spacingBottom=0;container=1" vertex="1" parent="2">
            <mxGeometry x="291" y="309" width="144" height="64" as="geometry" />
          </mxCell>
        </UserObject>
        <UserObject placeholders="1" label="Flink Task Manager (per Job)" Icon-Name="cube" _id="userobject_36xzUgNaQta" id="ZTb6Zkya2gtgggZRYpDZ-43">
          <mxCell style="shape=mxgraph.ibm2mondrian.base;shapeType=lg;shapeLayout=expanded;colorFamily=green;colorBackground=noColor:noColor;html=1;whiteSpace=wrap;metaEdit=1;strokeWidth=1;collapsible=0;recursiveResize=0;expand=0;fontFamily=IBM Plex Sans;fontColor=#000000;fontSize=14;image=;verticalAlign=middle;align=left;spacing=0;spacingLeft=12;spacingRight=16;spacingTop=0;spacingBottom=0;container=1" vertex="1" parent="2">
            <mxGeometry x="299" y="317" width="144" height="64" as="geometry" />
          </mxCell>
        </UserObject>
        <mxCell id="miscdiagram_B1mi-XiVt_53dyQNuRDxSE" style="edgeStyle=orthogonalEdgeStyle;rounded=1;orthogonalLoop=1;jettySize=auto;html=1;jumpStyle=arc;jumpSize=8;exitX=1;exitY=0.5;exitDx=0;exitDy=0;entryX=0;entryY=0.5;entryDx=0;entryDy=0;" parent="2" source="miscdiagram_B1mi-XiVt_163dyQNuR74nw" target="ZTb6Zkya2gtgggZRYpDZ-33" edge="1">
          <mxGeometry relative="1" as="geometry">
            <mxPoint x="175" y="666" as="sourcePoint" />
          </mxGeometry>
        </mxCell>
        <mxCell id="ZTb6Zkya2gtgggZRYpDZ-44" style="edgeStyle=orthogonalEdgeStyle;rounded=1;orthogonalLoop=1;jettySize=auto;html=1;jumpStyle=arc;jumpSize=8;exitX=1;exitY=0.5;exitDx=0;exitDy=0;entryX=0;entryY=0.5;entryDx=0;entryDy=0;" edge="1" parent="2" source="miscdiagram_B1mi-XiVt_163dyQNuR74nw" target="ZTb6Zkya2gtgggZRYpDZ-42">
          <mxGeometry relative="1" as="geometry">
            <mxPoint x="200" y="301" as="sourcePoint" />
            <mxPoint x="291" y="341" as="targetPoint" />
          </mxGeometry>
        </mxCell>
        <mxCell id="ZTb6Zkya2gtgggZRYpDZ-45" style="edgeStyle=orthogonalEdgeStyle;rounded=1;orthogonalLoop=1;jettySize=auto;html=1;jumpStyle=arc;jumpSize=8;exitX=1;exitY=0.5;exitDx=0;exitDy=0;entryX=0;entryY=0.5;entryDx=0;entryDy=0;" edge="1" parent="2" source="miscdiagram_B1mi-XiVt_163dyQNuR74nw" target="ZTb6Zkya2gtgggZRYpDZ-43">
          <mxGeometry relative="1" as="geometry">
            <mxPoint x="200" y="301" as="sourcePoint" />
            <mxPoint x="299" y="349" as="targetPoint" />
          </mxGeometry>
        </mxCell>
        <mxCell id="ZTb6Zkya2gtgggZRYpDZ-46" value="" style="edgeStyle=orthogonalEdgeStyle;rounded=1;orthogonalLoop=1;jettySize=auto;html=1;jumpStyle=arc;jumpSize=8;exitX=0.25;exitY=0;exitDx=0;exitDy=0;entryX=0.5;entryY=1;entryDx=0;entryDy=0;startArrow=classic;startFill=1;endArrow=none;endFill=0;" edge="1" parent="2" source="ZTb6Zkya2gtgggZRYpDZ-33" target="miscdiagram_B1mi-XiVt_203dyQNuRJsQD">
          <mxGeometry relative="1" as="geometry">
            <mxPoint x="579" y="413" as="sourcePoint" />
            <mxPoint x="587" y="361" as="targetPoint" />
          </mxGeometry>
        </mxCell>
        <mxCell id="ZTb6Zkya2gtgggZRYpDZ-47" value="" style="edgeStyle=orthogonalEdgeStyle;rounded=1;orthogonalLoop=1;jettySize=auto;html=1;jumpStyle=arc;jumpSize=8;exitX=0.444;exitY=0;exitDx=0;exitDy=0;entryX=0.5;entryY=1;entryDx=0;entryDy=0;startArrow=classic;startFill=1;endArrow=none;endFill=0;exitPerimeter=0;" edge="1" parent="2" source="ZTb6Zkya2gtgggZRYpDZ-42" target="miscdiagram_B1mi-XiVt_203dyQNuRJsQD">
          <mxGeometry relative="1" as="geometry">
            <mxPoint x="327" y="309" as="sourcePoint" />
            <mxPoint x="363" y="289" as="targetPoint" />
          </mxGeometry>
        </mxCell>
        <mxCell id="ZTb6Zkya2gtgggZRYpDZ-48" value="" style="edgeStyle=orthogonalEdgeStyle;rounded=1;orthogonalLoop=1;jettySize=auto;html=1;jumpStyle=arc;jumpSize=8;exitX=0.75;exitY=0;exitDx=0;exitDy=0;entryX=0.5;entryY=1;entryDx=0;entryDy=0;startArrow=classic;startFill=1;endArrow=none;endFill=0;" edge="1" parent="2" source="ZTb6Zkya2gtgggZRYpDZ-43" target="miscdiagram_B1mi-XiVt_203dyQNuRJsQD">
          <mxGeometry relative="1" as="geometry">
            <mxPoint x="363" y="317" as="sourcePoint" />
            <mxPoint x="363" y="269" as="targetPoint" />
          </mxGeometry>
        </mxCell>
        <UserObject placeholders="1" label="Kafka Broker" Icon-Name="cube" id="ZTb6Zkya2gtgggZRYpDZ-50">
          <mxCell style="shape=mxgraph.ibm2mondrian.base;shapeType=lg;shapeLayout=expanded;colorFamily=green;colorBackground=noColor:noColor;html=1;whiteSpace=wrap;metaEdit=1;strokeWidth=1;collapsible=0;recursiveResize=0;expand=0;fontFamily=IBM Plex Sans;fontColor=#000000;fontSize=14;image=;verticalAlign=middle;align=left;spacing=0;spacingLeft=12;spacingRight=16;spacingTop=0;spacingBottom=0;container=1" vertex="1" parent="2">
            <mxGeometry x="43" y="253" width="144" height="64" as="geometry" />
          </mxCell>
        </UserObject>
        <UserObject placeholders="1" label="Kafka Broker" Icon-Name="cube" id="miscdiagram_B1mi-XiVt_163dyQNuR74nw">
          <mxCell style="shape=mxgraph.ibm2mondrian.base;shapeType=lg;shapeLayout=expanded;colorFamily=green;colorBackground=noColor:noColor;html=1;whiteSpace=wrap;metaEdit=1;strokeWidth=1;collapsible=0;recursiveResize=0;expand=0;fontFamily=IBM Plex Sans;fontColor=#000000;fontSize=14;image=;verticalAlign=middle;align=left;spacing=0;spacingLeft=12;spacingRight=16;spacingTop=0;spacingBottom=0;container=1" parent="2" vertex="1">
            <mxGeometry x="48" y="261" width="144" height="64" as="geometry" />
          </mxCell>
        </UserObject>
        <mxCell id="ZTb6Zkya2gtgggZRYpDZ-51" style="edgeStyle=orthogonalEdgeStyle;rounded=1;orthogonalLoop=1;jettySize=auto;html=1;jumpStyle=arc;jumpSize=8;exitX=1;exitY=0.75;exitDx=0;exitDy=0;entryX=0.5;entryY=1;entryDx=0;entryDy=0;dashed=1;dashPattern=12 12;" edge="1" parent="2" source="ZTb6Zkya2gtgggZRYpDZ-43" target="miscdiagram_B1mi-XiVt_163dyQNuR74nw">
          <mxGeometry relative="1" as="geometry">
            <mxPoint x="200" y="301" as="sourcePoint" />
            <mxPoint x="307" y="357" as="targetPoint" />
            <Array as="points">
              <mxPoint x="463" y="365" />
              <mxPoint x="463" y="400" />
              <mxPoint x="120" y="400" />
            </Array>
          </mxGeometry>
        </mxCell>
        <mxCell id="ZTb6Zkya2gtgggZRYpDZ-52" value="optional - alerts, egresses" style="edgeLabel;html=1;align=center;verticalAlign=middle;resizable=0;points=[];" vertex="1" connectable="0" parent="ZTb6Zkya2gtgggZRYpDZ-51">
          <mxGeometry x="0.1078" y="1" relative="1" as="geometry">
            <mxPoint as="offset" />
          </mxGeometry>
        </mxCell>
        <mxCell id="ZTb6Zkya2gtgggZRYpDZ-53" style="edgeStyle=orthogonalEdgeStyle;rounded=1;orthogonalLoop=1;jettySize=auto;html=1;jumpStyle=arc;jumpSize=8;exitX=1;exitY=0.5;exitDx=0;exitDy=0;entryX=0;entryY=0.5;entryDx=0;entryDy=0;" edge="1" parent="2" source="ZTb6Zkya2gtgggZRYpDZ-43" target="ZTb6Zkya2gtgggZRYpDZ-39">
          <mxGeometry relative="1" as="geometry">
            <mxPoint x="200" y="301" as="sourcePoint" />
            <mxPoint x="307" y="357" as="targetPoint" />
          </mxGeometry>
        </mxCell>
        <mxCell id="ZTb6Zkya2gtgggZRYpDZ-54" value="bai-bai-pvc PVC&amp;nbsp;" style="shape=cylinder3;whiteSpace=wrap;html=1;boundedLbl=1;backgroundOutline=1;size=15;" vertex="1" parent="2">
          <mxGeometry x="307" y="431" width="60" height="80" as="geometry" />
        </mxCell>
        <mxCell id="ZTb6Zkya2gtgggZRYpDZ-55" value="" style="edgeStyle=orthogonalEdgeStyle;rounded=1;orthogonalLoop=1;jettySize=auto;html=1;jumpStyle=arc;jumpSize=8;exitX=0.5;exitY=0;exitDx=0;exitDy=0;exitPerimeter=0;entryX=0.5;entryY=1;entryDx=0;entryDy=0;startArrow=classic;startFill=1;" edge="1" parent="2" source="ZTb6Zkya2gtgggZRYpDZ-54">
          <mxGeometry relative="1" as="geometry">
            <mxPoint x="417" y="683" as="sourcePoint" />
            <mxPoint x="363" y="379" as="targetPoint" />
          </mxGeometry>
        </mxCell>
        <mxCell id="ZTb6Zkya2gtgggZRYpDZ-56" value="data-iaf-system-kafka PVC" style="shape=cylinder3;whiteSpace=wrap;html=1;boundedLbl=1;backgroundOutline=1;size=15;" vertex="1" parent="2">
          <mxGeometry x="53" y="434" width="60" height="80" as="geometry" />
        </mxCell>
        <mxCell id="ZTb6Zkya2gtgggZRYpDZ-57" value="" style="edgeStyle=orthogonalEdgeStyle;rounded=1;orthogonalLoop=1;jettySize=auto;html=1;jumpStyle=arc;jumpSize=8;exitX=0.5;exitY=0;exitDx=0;exitDy=0;exitPerimeter=0;entryX=0.25;entryY=1;entryDx=0;entryDy=0;startArrow=classic;startFill=1;" edge="1" parent="2" source="ZTb6Zkya2gtgggZRYpDZ-56" target="miscdiagram_B1mi-XiVt_163dyQNuR74nw">
          <mxGeometry relative="1" as="geometry">
            <mxPoint x="145" y="686" as="sourcePoint" />
            <mxPoint x="91" y="382" as="targetPoint" />
          </mxGeometry>
        </mxCell>
        <UserObject placeholders="1" label="Business Team Service" Icon-Name="cube" _id="userobject_33307lJiBC1" id="ZTb6Zkya2gtgggZRYpDZ-58">
          <mxCell style="shape=mxgraph.ibm2mondrian.base;shapeType=lg;shapeLayout=expanded;colorFamily=green;colorBackground=noColor:noColor;html=1;whiteSpace=wrap;metaEdit=1;strokeWidth=1;collapsible=0;recursiveResize=0;expand=0;fontFamily=IBM Plex Sans;fontColor=#000000;fontSize=14;image=;verticalAlign=middle;align=left;spacing=0;spacingLeft=12;spacingRight=16;spacingTop=0;spacingBottom=0;container=1" vertex="1" parent="2">
            <mxGeometry x="707" y="192" width="144" height="64" as="geometry" />
          </mxCell>
        </UserObject>
        <UserObject placeholders="1" label="Insights Engine Management" Icon-Name="cube" _id="userobject_36xxV5GtFeF" id="miscdiagram_B1mi-XiVt_193dyQNuRiL15">
          <mxCell style="shape=mxgraph.ibm2mondrian.base;shapeType=lg;shapeLayout=expanded;colorFamily=green;colorBackground=noColor:noColor;html=1;whiteSpace=wrap;metaEdit=1;strokeWidth=1;collapsible=0;recursiveResize=0;expand=0;fontFamily=IBM Plex Sans;fontColor=#000000;fontSize=14;image=;verticalAlign=middle;align=left;spacing=0;spacingLeft=12;spacingRight=16;spacingTop=0;spacingBottom=0;container=1" parent="2" vertex="1">
            <mxGeometry x="291" y="544" width="144" height="64" as="geometry" />
          </mxCell>
        </UserObject>
        <mxCell id="ZTb6Zkya2gtgggZRYpDZ-63" style="edgeStyle=orthogonalEdgeStyle;rounded=1;orthogonalLoop=1;jettySize=auto;html=1;jumpStyle=arc;jumpSize=8;exitX=0.75;exitY=0;exitDx=0;exitDy=0;entryX=0.25;entryY=1;entryDx=0;entryDy=0;" edge="1" parent="2" source="miscdiagram_B1mi-XiVt_193dyQNuRiL15" target="ZTb6Zkya2gtgggZRYpDZ-39">
          <mxGeometry relative="1" as="geometry">
            <mxPoint x="451" y="357" as="sourcePoint" />
            <mxPoint x="515" y="329" as="targetPoint" />
            <Array as="points">
              <mxPoint x="399" y="520" />
              <mxPoint x="507" y="520" />
              <mxPoint x="507" y="376" />
              <mxPoint x="543" y="376" />
            </Array>
          </mxGeometry>
        </mxCell>
        <mxCell id="ZTb6Zkya2gtgggZRYpDZ-64" style="edgeStyle=orthogonalEdgeStyle;rounded=1;orthogonalLoop=1;jettySize=auto;html=1;jumpStyle=arc;jumpSize=8;exitX=0.5;exitY=0;exitDx=0;exitDy=0;entryX=1;entryY=0.5;entryDx=0;entryDy=0;" edge="1" parent="2" source="miscdiagram_B1mi-XiVt_193dyQNuRiL15" target="miscdiagram_B1mi-XiVt_203dyQNuRJsQD">
          <mxGeometry relative="1" as="geometry">
            <mxPoint x="407" y="552" as="sourcePoint" />
            <mxPoint x="515" y="345" as="targetPoint" />
            <Array as="points">
              <mxPoint x="363" y="528" />
              <mxPoint x="387" y="528" />
              <mxPoint x="387" y="504" />
              <mxPoint x="483" y="504" />
              <mxPoint x="483" y="240" />
            </Array>
          </mxGeometry>
        </mxCell>
        <mxCell id="ZTb6Zkya2gtgggZRYpDZ-65" style="edgeStyle=orthogonalEdgeStyle;rounded=1;orthogonalLoop=1;jettySize=auto;html=1;jumpStyle=arc;jumpSize=8;exitX=0.25;exitY=0;exitDx=0;exitDy=0;entryX=0.75;entryY=1;entryDx=0;entryDy=0;" edge="1" parent="2" source="miscdiagram_B1mi-XiVt_193dyQNuRiL15" target="miscdiagram_B1mi-XiVt_163dyQNuR74nw">
          <mxGeometry relative="1" as="geometry">
            <mxPoint x="407" y="552" as="sourcePoint" />
            <mxPoint x="515" y="345" as="targetPoint" />
            <Array as="points">
              <mxPoint x="327" y="528" />
              <mxPoint x="156" y="528" />
            </Array>
          </mxGeometry>
        </mxCell>
        <mxCell id="ZTb6Zkya2gtgggZRYpDZ-66" value="ibm-events-operator" style="rounded=0;whiteSpace=wrap;html=1;fillColor=#dae8fc;strokeColor=#6c8ebf;" vertex="1" parent="2">
          <mxGeometry x="152" y="104" width="128" height="32" as="geometry" />
        </mxCell>
        <mxCell id="ZTb6Zkya2gtgggZRYpDZ-67" value="ibm-elasticsearch-operator-ibm-es-controller-manager" style="rounded=0;whiteSpace=wrap;html=1;fillColor=#dae8fc;strokeColor=#6c8ebf;" vertex="1" parent="2">
          <mxGeometry x="288" y="104" width="176" height="32" as="geometry" />
        </mxCell>
        <UserObject placeholders="1" label="Business Performance Center (Insights Engine Cockpit)" Icon-Name="cube" _id="userobject_36xAfdTrJis" id="ZTb6Zkya2gtgggZRYpDZ-37">
          <mxCell style="shape=mxgraph.ibm2mondrian.base;shapeType=lg;shapeLayout=expanded;colorFamily=green;colorBackground=noColor:noColor;html=1;whiteSpace=wrap;metaEdit=1;strokeWidth=1;collapsible=0;recursiveResize=0;expand=0;fontFamily=IBM Plex Sans;fontColor=#000000;fontSize=14;image=;verticalAlign=middle;align=left;spacing=0;spacingLeft=12;spacingRight=16;spacingTop=0;spacingBottom=0;container=1" vertex="1" parent="1">
            <mxGeometry x="747" y="321" width="144" height="64" as="geometry" />
          </mxCell>
        </UserObject>
        <mxCell id="ZTb6Zkya2gtgggZRYpDZ-40" value="" style="edgeStyle=orthogonalEdgeStyle;rounded=1;orthogonalLoop=1;jettySize=auto;html=1;jumpStyle=arc;jumpSize=8;entryX=0;entryY=0.5;entryDx=0;entryDy=0;exitX=1;exitY=0.5;exitDx=0;exitDy=0;startArrow=classic;startFill=1;" edge="1" parent="1" source="ZTb6Zkya2gtgggZRYpDZ-39" target="ZTb6Zkya2gtgggZRYpDZ-37">
          <mxGeometry relative="1" as="geometry">
            <mxPoint x="611" y="513" as="sourcePoint" />
            <mxPoint x="619" y="461" as="targetPoint" />
          </mxGeometry>
        </mxCell>
        <mxCell id="ZTb6Zkya2gtgggZRYpDZ-59" value="" style="edgeStyle=orthogonalEdgeStyle;rounded=1;orthogonalLoop=1;jettySize=auto;html=1;jumpStyle=arc;jumpSize=8;entryX=0.5;entryY=1;entryDx=0;entryDy=0;startArrow=classic;startFill=1;" edge="1" parent="1" target="ZTb6Zkya2gtgggZRYpDZ-58">
          <mxGeometry relative="1" as="geometry">
            <mxPoint x="811" y="328" as="sourcePoint" />
            <mxPoint x="755" y="361" as="targetPoint" />
          </mxGeometry>
        </mxCell>
      </root>
    </mxGraphModel>
  </diagram>
</mxfile>
